<svg width="49" height="43" viewBox="0 0 49 43" fill="none" xmlns="http://www.w3.org/2000/svg">
<g clip-path="url(#clip0_83_203)">
<path fill-rule="evenodd" clip-rule="evenodd" d="M24.4191 42.8378C12.6091 42.8378 3.00012 33.2298 3.00012 21.4188C3.00012 15.6718 5.23412 10.2948 9.28712 6.27676C13.2941 2.23376 18.6721 -0.000244141 24.4191 -0.000244141C33.6696 -0.000244141 41.5697 5.89503 44.5595 14.1257L45.9006 9.43426C46.1476 8.55726 47.0536 8.05326 47.9376 8.30026C48.8136 8.55026 49.3176 9.46326 49.0676 10.3373L45.7973 21.785C45.6307 22.5188 44.9742 23.0668 44.1901 23.0668C44.015 23.0668 43.8462 23.0394 43.6878 22.9886C43.5996 22.9605 43.5135 22.9247 43.4305 22.8812C43.3678 22.8485 43.3074 22.8119 43.2498 22.7717L33.3916 16.1993C32.6376 15.6953 32.4296 14.6733 32.9336 13.9163C33.4416 13.1583 34.4666 12.9573 35.2176 13.4583L42.2465 18.1433C40.7001 9.70744 33.2924 3.29476 24.4191 3.29476C19.5591 3.29476 15.0111 5.18076 11.6171 8.60776C8.18012 12.0118 6.29512 16.5588 6.29512 21.4188C6.29512 31.4098 14.4241 39.5428 24.4191 39.5428C29.2831 39.5428 33.8271 37.6578 37.2211 34.2338C37.8601 33.5918 38.9081 33.5818 39.5511 34.2208C40.1961 34.8598 40.2031 35.9078 39.5641 36.5508C35.5441 40.6048 30.1661 42.8378 24.4191 42.8378ZM29.362 29.6571H19.476V23.0661H21.0976C21.1062 23.0662 21.1149 23.0663 21.1235 23.0663C21.1322 23.0663 21.1408 23.0662 21.1495 23.0661H27.6886C27.6972 23.0662 27.7059 23.0663 27.7145 23.0663C27.7232 23.0663 27.7318 23.0662 27.7405 23.0661H29.362V29.6571ZM29.3615 19.7711V14.8293C29.3615 12.1033 27.1445 9.88526 24.4195 9.88526C21.6935 9.88526 19.4765 12.1033 19.4765 14.8293V19.7711H17.829C16.919 19.7711 16.181 20.5101 16.181 21.4191V31.3041C16.181 32.2151 16.919 32.9521 17.829 32.9521H31.009C31.919 32.9521 32.657 32.2151 32.657 31.3041V21.4191C32.657 20.5101 31.919 19.7711 31.009 19.7711H29.3615ZM26.0665 19.7711V14.8293C26.0665 13.9193 25.3285 13.1803 24.4195 13.1803C23.5095 13.1803 22.7715 13.9193 22.7715 14.8293V19.7711H26.0665Z" fill="#272727"/>
</g>
<defs>
<clipPath id="clip0_83_203">
<rect width="43" height="49" fill="white" transform="translate(0 43) rotate(-90)"/>
</clipPath>
</defs>
</svg>
